HIERARCHY
ROOT Hips
{
  OFFSET -78.2937 95.2471 23.4479
  CHANNELS 6 Xposition Yposition Zposition Zrotation Xrotation Yrotation
  JOINT RightUpLeg
  {
    OFFSET -8.9458 -8.66707 0.101652
    CHANNELS 3 Zrotation Xrotation Yrotation
    JOINT RightLeg
    {
      OFFSET 0 -44.4227 1.3727
      CHANNELS 3 Zrotation Xrotation Yrotation
      JOINT RightFoot
      {
        OFFSET 0.253549 -42.0924 -1.46059
        CHANNELS 3 Zrotation Xrotation Yrotation
        JOINT RightToes
        {
          OFFSET 0.04 -4.41509 8.4991
          CHANNELS 3 Zrotation Xrotation Yrotation
          End Site
          {
            OFFSET -0.08 -0.137448 9.77979
          }
        }
      }
    }
  }
  JOINT Spine
  {
    OFFSET 0 11.8905 0
    CHANNELS 3 Zrotation Xrotation Yrotation
    JOINT Spine1
    {
      OFFSET 0 25.6574 0.127663
      CHANNELS 3 Zrotation Xrotation Yrotation
      JOINT HEad
      {
        OFFSET 0 8.73416 0.011341
        CHANNELS 3 Zrotation Xrotation Yrotation
        End Site
        {
          OFFSET -0.29 12.7742 2.51395
        }
      }
      JOINT LeftShoulder1
      {
        OFFSET 8.99 -0.362252 -0.22
        CHANNELS 3 Zrotation Xrotation Yrotation
        JOINT LeftArm
        {
          OFFSET 10.2827 -0.00338 0.322123
          CHANNELS 3 Zrotation Xrotation Yrotation
          JOINT LeftForeArm
          {
            OFFSET 32.7669 0.099144 -1.42434
            CHANNELS 3 Zrotation Xrotation Yrotation
            JOINT LeftHand
            {
              OFFSET 27.5643 0.085362 1.02216
              CHANNELS 3 Zrotation Xrotation Yrotation
              End Site
              {
                OFFSET 16.7443 -0.6 1.50291
              }
            }
          }
        }
      }
      JOINT RightShoulder
      {
        OFFSET -8.99 -0.362252 -0.22
        CHANNELS 3 Zrotation Xrotation Yrotation
        JOINT RightArm
        {
          OFFSET -10.2827 -0.00338 0.322123
          CHANNELS 3 Zrotation Xrotation Yrotation
          JOINT RightForeArm
          {
            OFFSET -32.8971 0.099144 -1.42434
            CHANNELS 3 Zrotation Xrotation Yrotation
            JOINT RightHand
            {
              OFFSET -27.4921 0.085362 1.02216
              CHANNELS 3 Zrotation Xrotation Yrotation
              End Site
              {
                OFFSET -16.6312 -0.6 1.50291
              }
            }
          }
        }
      }
    }
  }
  JOINT LeftUpLeg
  {
    OFFSET 8.9458 -8.66707 0.101652
    CHANNELS 3 Zrotation Xrotation Yrotation
    JOINT LeftLeg
    {
      OFFSET 0 -44.4227 1.3727
      CHANNELS 3 Zrotation Xrotation Yrotation
      JOINT LeftFoot
      {
        OFFSET -0.253549 -42.0924 -1.46059
        CHANNELS 3 Zrotation Xrotation Yrotation
        JOINT LeftToes
        {
          OFFSET -0.04 -4.41509 8.4991
          CHANNELS 3 Zrotation Xrotation Yrotation
          End Site
          {
            OFFSET 0.08 -0.047448 9.77979
          }
        }
      }
    }
  }
}
MOTION
Frames:	15
Frame Time:	0.0166667
-68.5146 102.349 -4.41463 1.28267 -1.76648 90.4739 -17.2251 -27.6111 -4.40096 12.7843 35.7244 -4.8332 20.429 -6.9137 0.25362 0.0462048 0.000533403 0.662642 -0.129372 6.83163 -5.40332 -2.64425 13.474 -10.1377 19.4346 1.71894 -20.3337 -4.37326e-015 1.59028e-015 -3.18055e-015 -89.7127 -7.89168 -49.4471 -43.7065 59.6817 -76.502 7.21815 19.4659 -2.26649 28.2441 -4.89343 -18.5511 88.6868 -41.546 52.1244 -4.38763 63.2576 136.267 -21.7832 18.0223 5.90221 10.5617 -5.08756 -8.17272 -17.0215 32.8126 9.95125 -7.73957 14.8483 1.5168 -1.32782e-009 1.55902e-007 -4.88069e-009 
-69.1286 102.298 -4.13784 0.751334 -1.74339 90.5254 -17.9305 -29.2277 -4.29899 12.5699 36.2817 -2.39447 20.1643 -4.07822 -0.250231 0.0462048 0.000533403 0.662642 0.140988 6.73528 -5.33635 -2.70264 13.2511 -9.98882 18.6546 1.62646 -20.114 -1.59028e-015 1.78906e-015 -0 -89.5768 -7.62477 -48.9825 -43.7695 59.6165 -76.2549 7.21815 19.4659 -2.26649 27.8557 -4.86843 -18.6746 88.894 -41.8027 52.673 -3.78743 63.9151 135.117 -21.3408 18.1029 5.6633 11.8329 -6.77191 -6.94132 -18.1938 33.5652 9.28231 -9.18525 16.3467 1.93496 -1.32782e-009 1.55902e-007 -4.88069e-009 
-69.7236 102.119 -3.86777 0.446549 -1.90348 90.9792 -18.4176 -30.4772 -3.91179 12.6705 37.096 -2.50306 18.4141 -1.40118 -0.651684 0.0462048 0.000533403 0.662642 0.723547 6.76399 -5.31856 -2.52633 13.2379 -9.94551 17.6947 1.53931 -19.9658 -3.97569e-016 0 3.18055e-015 -89.3428 -7.16831 -48.5292 -43.6685 59.4149 -76.0076 7.21815 19.4659 -2.26649 27.4511 -4.90908 -19.0308 89.1326 -41.9208 53.4086 -3.14092 64.6347 133.516 -21.2783 18.0982 5.72111 13.3433 -8.4385 -5.45562 -19.0568 34.486 8.87171 -10.481 19.1145 2.50607 -1.32782e-009 1.55902e-007 -4.8807e-009 
-70.2747 101.781 -3.56862 0.468231 -2.18613 91.7729 -18.8984 -31.132 -3.19124 13.4801 38.1829 -6.52786 15.612 0.232431 -0.755581 0.0462048 0.000533403 0.662642 1.43001 6.89747 -5.34519 -2.20924 13.4263 -9.99429 16.7913 1.521 -19.9452 -1.19271e-015 -6.26172e-015 -1.59028e-015 -88.9698 -6.4653 -48.3571 -43.2395 59.0087 -75.8344 7.21815 19.4659 -2.26649 27.0137 -4.91619 -19.2998 89.4416 -42.2381 54.3395 -2.45064 65.3417 131.659 -21.663 18.0061 6.05318 14.8048 -9.79506 -3.93597 -19.1871 35.4877 8.89574 -11.2991 22.6411 3.10961 -1.32782e-009 1.55902e-007 -4.88069e-009 
-70.7574 101.294 -3.21315 0.825902 -2.48845 92.7165 -19.48 -31.1436 -2.11449 15.1978 39.474 -13.8825 12.5507 -0.217351 -0.531295 0.0462048 0.000533403 0.662642 2.0739 7.09026 -5.38724 -1.89952 13.7483 -10.0529 16.153 1.64711 -20.0701 -3.97569e-016 2.23633e-015 -0 -88.4413 -5.53893 -48.6818 -42.4687 58.3865 -75.7204 7.21815 19.4659 -2.26649 26.5726 -4.84972 -19.3235 89.7513 -42.842 55.375 -1.68415 65.9518 129.755 -22.4218 17.8386 6.59409 15.9857 -10.5529 -2.80385 -18.4948 36.2524 9.32114 -11.3721 26.1604 3.54017 -1.32782e-009 1.55902e-007 -4.88069e-009 
-71.1449 100.668 -2.77424 1.42751 -2.70327 93.5354 -20.1216 -30.6426 -0.742759 17.5739 40.7275 -21.9931 10.5686 -2.61039 -0.202488 0.0462048 0.000533403 0.662642 2.46574 7.28735 -5.38975 -1.75152 14.1081 -9.9944 15.8999 1.94664 -20.3066 3.97569e-016 -5.46658e-016 -0 -87.7961 -4.49617 -49.5888 -41.4922 57.6236 -75.6094 7.21815 19.4659 -2.26649 26.2183 -4.74795 -19.1729 89.9591 -43.5358 56.4126 -0.84563 66.4003 128.008 -23.3492 17.6173 7.28771 16.7766 -10.5452 -2.46626 -17.3272 36.4828 9.76296 -10.7518 28.8294 3.64815 -1.32782e-009 1.55902e-007 -4.88069e-009 
-71.4121 99.8695 -2.21397 2.12464 -2.77165 93.9416 -20.7338 -30.0419 0.6728 19.9244 41.7945 -27.9098 10.3172 -4.85878 0.00978039 0.0462048 0.000533403 0.662642 2.4539 7.44972 -5.27646 -1.86202 14.4276 -9.70735 16.0136 2.36033 -20.5787 1.269e-031 -2.28602e-015 3.18055e-015 -87.1437 -3.52381 -50.9828 -40.5268 56.8782 -75.4863 7.21815 19.4659 -2.26649 26.0409 -4.67198 -19.0078 90.0157 -44.0244 57.379 -0.0895073 66.6328 126.699 -24.1878 17.3803 8.04736 17.2043 -9.82308 -3.09884 -16.2682 36.2451 9.84411 -9.87892 29.9392 3.47335 -1.32782e-009 1.55902e-007 -4.88069e-009 
-71.6071 98.9548 -1.54698 2.79474 -2.73404 93.7649 -21.1777 -29.882 1.7565 21.4436 42.7142 -29.9583 10.987 -4.49961 -0.0543098 0.0462048 0.000533403 0.662642 2.10515 7.58132 -5.02883 -2.2312 14.6988 -9.15288 16.3437 2.71712 -20.7701 1.15865e-031 -4.17448e-015 1.59028e-015 -86.6529 -2.85397 -52.6327 -39.8013 56.3447 -75.4018 7.21815 19.4659 -2.26649 26.0404 -4.63198 -18.8669 89.9645 -44.149 58.2124 0.240055 66.5625 126.234 -24.7077 17.2011 8.64641 17.3611 -8.59741 -4.59218 -15.7568 35.7864 9.72783 -9.01 29.2117 3.10605 -1.32782e-009 1.55902e-007 -4.88069e-009 
-71.7777 98.0255 -0.787585 3.3907 -2.66117 92.9778 -21.2779 -30.5606 2.22929 21.6818 43.8488 -28.2568 11.8389 -0.904141 -0.500405 0.0462048 0.000533403 0.662642 1.60781 7.72526 -4.6748 -2.78046 14.9869 -8.39321 16.6741 2.7857 -20.7221 7.95139e-016 -1.98785e-015 -1.59028e-015 -86.5106 -2.70728 -54.2776 -39.4972 56.1789 -75.4156 7.21815 19.4659 -2.26649 26.1014 -4.56008 -18.5789 89.9506 -44.019 58.8612 -0.223042 66.1078 127.005 -24.7375 17.1932 8.66808 17.3606 -7.14685 -6.55804 -15.9433 35.4229 10.0565 -7.95481 26.8296 2.55022 -1.32782e-009 1.55902e-007 -4.88069e-009 
-71.9286 97.157 0.074131 3.91642 -2.61118 91.7402 -20.9483 -32.068 2.08042 20.6732 45.5417 -24.072 13.1708 4.57805 -1.27222 0.0462048 0.000533403 0.662642 1.12476 7.92103 -4.28841 -3.38097 15.3652 -7.58407 16.8179 2.40947 -20.307 -7.95139e-016 2.28602e-015 -1.59028e-015 -86.8539 -3.20498 -55.7109 -39.7015 56.4321 -75.5235 7.21815 19.4659 -2.26649 26.0736 -4.36907 -17.9201 90.2011 -43.921 59.3443 -1.59137 65.3232 129.111 -24.1748 17.4657 7.62811 17.3335 -5.71909 -8.44045 -16.646 35.3187 11.2592 -6.54119 23.6086 1.87258 -1.32782e-009 1.55902e-007 -4.88069e-009 
-72.0292 96.4078 1.05571 4.35196 -2.63871 90.4156 -20.2311 -34.1015 1.51367 18.701 47.8221 -18.6429 15.2205 10.0744 -2.25626 0.0462048 0.000533403 0.662642 0.763036 8.16577 -3.97094 -3.88849 15.8315 -6.92677 16.7169 1.62395 -19.5652 -7.95139e-016 1.78906e-015 -0 -87.6871 -4.26251 -56.8108 -40.3576 57.0149 -75.6481 7.21815 19.4659 -2.26649 25.8821 -4.04442 -16.8681 90.9323 -44.0987 59.7847 -3.63964 64.44 132.21 -23.0123 18.0323 5.27284 17.4186 -4.51369 -9.82418 -17.4083 35.4014 13.0341 -5.03572 20.7198 1.25941 -1.32782e-009 1.55902e-007 -4.88069e-009 
-72.0437 95.8562 2.16875 4.63088 -2.77849 89.4839 -19.2993 -36.1974 0.827571 16.1773 50.2453 -12.8315 17.5524 14.447 -3.28783 0.0462048 0.000533403 0.662642 0.573187 8.40657 -3.80641 -4.19462 16.288 -6.58643 16.4771 0.674462 -18.7602 -7.95139e-016 1.39149e-015 1.59028e-015 -88.8364 -5.56971 -57.5191 -41.2435 57.7174 -75.7113 7.21815 19.4659 -2.26649 25.5675 -3.6664 -15.6657 92.1917 -44.6207 60.3325 -6.0217 63.702 135.696 -21.3812 18.7661 1.82391 17.7381 -3.73333 -10.6758 -17.7764 35.5684 14.5163 -3.97993 18.8598 0.860401 -1.32782e-009 1.55902e-007 -4.88069e-009 
-71.966 95.5949 3.40576 4.69686 -3.01618 89.36 -18.4882 -37.859 0.31762 13.8425 52.1695 -7.6835 19.3759 17.1378 -4.08842 0.0462048 0.000533403 0.662642 0.567198 8.57628 -3.82339 -4.25987 16.6091 -6.61944 16.2819 -0.0947272 -18.2512 -1.59028e-015 3.97569e-016 -3.18055e-015 -90.0136 -6.72497 -57.7979 -42.0362 58.3004 -75.7249 7.21815 19.4659 -2.26649 25.2306 -3.34358 -14.6458 93.7875 -45.4078 61.0789 -8.47663 63.142 138.938 -19.5681 19.474 -2.08279 18.3799 -3.55646 -11.2143 -17.5972 35.7769 14.8856 -3.80015 17.9866 0.729783 -1.32782e-009 1.55902e-007 -4.88069e-009 
-71.8289 95.6725 4.73563 4.55137 -3.28098 90.2498 -18.2014 -38.745 0.187116 12.6146 53.1443 -4.59318 19.8293 17.9868 -4.35159 0.0462048 0.000533403 0.662642 0.739558 8.6379 -3.9919 -4.10987 16.7251 -6.96726 16.2675 -0.457709 -18.2865 -2.38542e-015 3.97569e-016 -1.59028e-015 -90.9571 -7.41961 -57.627 -42.4732 58.6094 -75.7722 7.21815 19.4659 -2.26649 24.9433 -3.14072 -14.0235 95.4706 -46.3509 62.1338 -10.826 62.593 141.38 -17.9344 20.0225 -5.71807 19.3638 -4.09441 -11.5536 -17.0002 35.9922 13.7905 -4.56787 17.8727 0.863061 -1.32782e-009 1.55902e-007 -4.88069e-009 
-71.675 96.0405 6.11101 4.25109 -3.47698 92.1271 -18.6969 -38.7016 0.544468 12.9499 52.9014 -4.62291 18.4474 17.4428 -4.00852 0.0462048 0.000533403 0.662642 1.06424 8.59609 -4.24894 -3.80156 16.6499 -7.50525 16.4764 -0.471586 -18.8956 -2.38542e-015 2.38542e-015 -0 -91.5281 -7.5461 -57.0544 -42.4992 58.6304 -75.9178 7.21815 19.4659 -2.26649 24.6971 -3.05021 -13.7909 97.189 -47.4156 63.7509 -12.9015 61.876 142.575 -16.7576 20.3837 -8.55423 20.5928 -5.38702 -11.5372 -16.1286 36.2127 11.3552 -6.07942 18.5946 1.2404 -1.32782e-009 1.55902e-007 -4.88069e-009 
